<svg id="Layer_1" data-name="Layer 1" xmlns="http://www.w3.org/2000/svg" viewBox="0 0 76.67 28.41"><defs><style>.cls-1{fill:#00695c;}.cls-2{fill:#4db6ac;}.cls-3{fill:#b2dfdb;}.cls-4{fill:#3f51b5;}.cls-5{fill:#009688;}</style></defs><title>liftr-logo</title><path class="cls-1" d="M2.63,4.58H5.8V30.13H2.63Z" transform="translate(-2.63 -4.18)"/><path class="cls-2" d="M31,30.13v-15H28.5V12.71H31v-.83c0-2.44.54-4.68,2-6.08a6.07,6.07,0,0,1,4.24-1.62,7.37,7.37,0,0,1,2.7.5l-.43,2.45a4.81,4.81,0,0,0-2-.39c-2.7,0-3.39,2.37-3.39,5v.94h4.21v2.41H34.08v15Z" transform="translate(-2.63 -4.18)"/><path class="cls-3" d="M51.44,7.71v5H56v2.41H51.44v9.4c0,2.16.62,3.38,2.38,3.38a6.83,6.83,0,0,0,1.83-.22l.15,2.38a7.83,7.83,0,0,1-2.81.43,4.42,4.42,0,0,1-3.42-1.33c-.9-.94-1.22-2.48-1.22-4.54v-9.5h-2.7V12.71h2.7V8.54Z" transform="translate(-2.63 -4.18)"/><path class="cls-4" d="M65.63,18.15c0-2.06,0-3.82-.15-5.44h2.78l.1,3.42h.15a5.23,5.23,0,0,1,4.82-3.82,3.52,3.52,0,0,1,.9.11v3a4.85,4.85,0,0,0-1.08-.11c-2.23,0-3.81,1.69-4.25,4.07a9.19,9.19,0,0,0-.14,1.48v9.28H65.63Z" transform="translate(-2.63 -4.18)"/><rect class="cls-5" x="13.67" y="11.41" width="3" height="11"/><circle class="cls-5" cx="15.17" cy="11.91" r="3.5"/><circle class="cls-5" cx="15.17" cy="22.91" r="3.5"/><circle class="cls-3" cx="53.17" cy="24.91" r="3.5"/><circle class="cls-4" cx="73.17" cy="8.91" r="3.5"/></svg>